# xmcd
#
# Track frame offsets:
#	150
#	15195
#	29722
#	44555
#	55874
#	68565
#	83539
#	94758
#	109264
#	124468
#	136002
#	148287
#	159020
#	169503
#	177727
#	194303
#	205155
#	215857
#	232014
#
# Disc length: 3252 seconds
#
# Revision: 2
# Processed by: cddbd v1.5.1PL2 Copyright (c) Steve Scherf et al.
# Submitted via: audiograbber 1.83.01
#
DISCID=100cb213
DTITLE=Kinky Friedman - Live From The Lone Star Cafe
DYEAR=1982
DGENRE=Country
TTITLE0=Wabash Cannonball
TTITLE1=Wheels
TTITLE2=Good-Hearted Woman
TTITLE3=London Homesick Blues
TTITLE4=Twirl
TTITLE5=Western Union Wire
TTITLE6=Rollin' In My Sweet Baby's Arms
TTITLE7=Cotton Eyed Joe
TTITLE8=(Up Against The Wall) Red Neck Mother
TTITLE9=Okle From Muskogee
TTITLE10=Luckenbach, Texas
TTITLE11=Biscuits 'n Buns
TTITLE12=Jambalaya
TTITLE13=Put Another Log on the Fire
TTITLE14=Sold American
TTITLE15=Are You Sure Hank Done It this Way
TTITLE16=Before All Hell Breaks Loose
TTITLE17=Orange Blossom Special
TTITLE18=Keep On the Sunnyside
EXTD=
EXTT0=
EXTT1=
EXTT2=
EXTT3=
EXTT4=
EXTT5=
EXTT6=
EXTT7=
EXTT8=
EXTT9=
EXTT10=
EXTT11=
EXTT12=
EXTT13=
EXTT14=
EXTT15=
EXTT16=
EXTT17=
EXTT18=
PLAYORDER=
